<svg width="64" height="13" viewBox="0 0 64 13" fill="none" xmlns="http://www.w3.org/2000/svg">
<g id="Group">
<path id="Vector" d="M8.67246 12.8504C12.1381 12.6597 14.3345 9.88181 16.2725 7.4302C17.5694 5.79059 18.9094 4.09447 20.0076 4.09447C21.9069 4.09447 23.1704 5.54209 25.0262 7.92382C26.7778 10.1736 28.7625 12.7239 32.0538 12.7239C35.343 12.7239 37.3298 10.1747 39.0814 7.92495C40.9373 5.54209 42.202 4.09447 44.1011 4.09447C45.1827 4.09447 46.5095 5.81509 47.793 7.47795C49.7099 9.96069 51.8819 12.7762 55.3342 12.9603C55.4473 12.9669 55.5604 12.9692 55.6747 12.9692C58.1274 12.9692 60.6689 11.5637 63.4311 8.67945C64.2132 7.86295 64.1855 6.56621 63.369 5.78409C62.5502 5.00084 61.2546 5.02972 60.4736 5.84621C58.5145 7.89182 56.8128 8.95119 55.5527 8.87132C53.9774 8.78707 52.4832 6.84896 51.0366 4.97534C49.2372 2.64348 47.1972 0 44.1021 0C40.0641 0 37.7279 2.99848 35.8509 5.40909C34.2912 7.41258 33.2562 8.62944 32.0548 8.62944C30.8523 8.62944 29.8184 7.41245 28.2587 5.40909C26.3817 2.99848 24.0466 0 20.0075 0C16.9247 0 14.8713 2.59811 13.0587 4.89109C11.5888 6.75033 10.0701 8.67282 8.44721 8.76157C7.20259 8.85144 5.46198 7.8242 3.50512 5.84296C2.71087 5.03647 1.414 5.02872 0.60976 5.82409C-0.19561 6.61833 -0.204485 7.9152 0.590885 8.71944C3.47524 11.6413 6.13647 13.0168 8.67246 12.8504Z" fill="#507A4D" fill-opacity="0.2"/>
</g>
</svg>
