<svg xmlns="http://www.w3.org/2000/svg" version="1.1" xmlns:xlink="http://www.w3.org/1999/xlink" width="512" height="512" x="0" y="0" viewBox="0 0 24 24" style="enable-background:new 0 0 512 512" xml:space="preserve" class=""><g><path d="M10 24c-1.93 0-3.5-1.57-3.5-3.5a.5.5 0 0 1 1 0c0 1.378 1.122 2.5 2.5 2.5s2.5-1.122 2.5-2.5a.5.5 0 0 1 1 0c0 1.93-1.57 3.5-3.5 3.5z" fill="#000000" opacity="1" data-original="#000000"></path><path d="M18.5 21h-17a1.502 1.502 0 0 1-.975-2.64.47.47 0 0 1 .064-.046A6.977 6.977 0 0 0 3 13.04V10c0-3.292 2.337-6.173 5.558-6.849a.5.5 0 1 1 .205.979A6.023 6.023 0 0 0 4 10v3.04a7.972 7.972 0 0 1-2.816 6.081.507.507 0 0 1-.046.035A.5.5 0 0 0 1.5 20h17a.5.5 0 0 0 .362-.845.459.459 0 0 1-.044-.033 7.94 7.94 0 0 1-2.166-2.922.5.5 0 1 1 .916-.402 6.98 6.98 0 0 0 1.845 2.516.392.392 0 0 1 .062.045A1.502 1.502 0 0 1 18.5 21z" fill="#000000" opacity="1" data-original="#000000"></path><path d="M17.5 13c-3.584 0-6.5-2.916-6.5-6.5S13.916 0 17.5 0 24 2.916 24 6.5 21.084 13 17.5 13zm0-12C14.467 1 12 3.467 12 6.5s2.467 5.5 5.5 5.5S23 9.533 23 6.5 20.533 1 17.5 1z" fill="#000000" opacity="1" data-original="#000000"></path><path d="M19 9.5h-3a.5.5 0 0 1-.5-.5v-.75A2.252 2.252 0 0 1 17.75 6a.75.75 0 0 0 0-1.5H16a.5.5 0 0 1 0-1h1.75c.965 0 1.75.785 1.75 1.75S18.715 7 17.75 7c-.689 0-1.25.561-1.25 1.25v.25H19a.5.5 0 0 1 0 1z" fill="#000000" opacity="1" data-original="#000000"></path></g></svg>