<svg width="38" height="36" viewBox="0 0 38 36" fill="none" xmlns="http://www.w3.org/2000/svg">
<g id="Group">
<path id="Vector" fill-rule="evenodd" clip-rule="evenodd" d="M12.1591 0.681867C8.73811 -1.03014 4.97498 0.681888 3.09341 3.5923C-0.840771 5.81791 -0.840769 11.6387 2.0671 15.2339C3.60657 17.2884 5.48813 17.1172 7.19865 16.2612C7.3697 16.2612 7.54074 16.2612 7.71179 16.2612C8.05389 22.082 5.14603 26.8756 2.23815 32.0116C2.0671 31.8404 1.55395 31.6692 1.3829 32.0116C1.04079 32.6964 0.527642 33.3812 0.356591 34.2372C0.356591 34.4085 0.356588 34.7508 0.52764 34.922C0.52764 35.4356 1.21184 35.7781 1.72499 35.2645C1.89605 35.0933 1.89605 34.9221 2.0671 34.7509C5.31708 32.354 8.22496 29.2724 10.4486 25.6772C13.1854 23.2804 15.067 20.1988 15.5802 16.6036C16.4354 14.7203 16.7775 12.6659 16.9486 10.9539C17.4617 6.6739 16.2644 2.73628 12.1591 0.681867ZM2.75131 8.72833C2.75131 8.55713 3.09341 8.21471 3.26446 8.04351C3.26446 8.72831 3.60656 9.58432 3.94867 10.2691C3.94867 10.6115 3.77762 11.1251 3.77762 11.4675C3.26446 10.6115 2.75131 9.75553 2.75131 8.72833C2.75131 8.89953 2.75131 8.89953 2.75131 8.72833ZM3.43551 14.7204C1.72499 13.3508 1.21185 10.4403 1.3829 8.38591C1.3829 7.8723 1.55394 7.35871 1.72499 6.84511C1.72499 7.01631 1.72499 7.0163 1.72499 7.18751C1.21184 8.55711 1.21184 9.92673 1.72499 11.2963C1.72499 11.4675 1.72499 11.6387 1.72499 11.8099C1.72499 12.1523 1.89605 12.4947 2.0671 12.8371C2.23816 13.3507 2.40921 13.6931 2.75131 14.2068C3.09342 14.7204 3.94867 15.0627 4.63287 15.2339C4.80393 15.4051 4.97497 15.4052 5.14602 15.5764C4.63287 15.4052 3.94866 15.234 3.43551 14.7204ZM9.42231 2.56509C8.396 2.39389 7.19865 2.3939 6.34339 2.7363C6.17234 2.7363 5.83023 2.7363 5.65918 2.7363H5.48813C6.34339 2.0515 7.36969 1.53787 8.56705 1.53787C8.396 1.70907 8.39601 1.88029 8.73811 1.88029C9.42232 1.88029 10.1065 2.05149 10.6197 2.22269C10.1065 2.39389 9.76441 2.56509 9.42231 2.56509ZM10.9618 17.1172C10.9618 16.6036 10.9618 15.7476 10.7907 15.0628C10.7907 15.0628 10.9618 15.0627 10.9618 14.8915C11.1328 15.5763 11.1328 16.4324 10.9618 17.1172ZM15.2381 7.70111C15.067 7.52991 14.7249 7.70111 14.7249 8.04351C15.067 9.41312 15.067 10.7827 14.7249 12.1523C14.7249 11.8099 14.7249 11.4675 14.7249 11.1251C14.7249 10.9539 14.7249 10.9539 14.7249 10.7827C14.896 10.0979 14.896 9.58432 14.7249 8.89951C14.5539 7.0163 14.2117 4.96191 13.3565 3.5923C14.7249 4.61951 15.2381 6.16031 15.2381 7.70111C15.2381 7.87231 15.2381 7.70111 15.2381 7.70111Z" fill="#507A4D"/>
<path id="Vector_2" fill-rule="evenodd" clip-rule="evenodd" d="M32.3432 0.853136C28.9222 -0.858871 25.159 0.853131 23.2775 3.76354C19.3433 5.98915 19.3433 11.81 22.2511 15.4052C23.7906 17.4596 25.6722 17.2884 27.3827 16.4324C27.5537 16.4324 27.7248 16.4324 27.8958 16.4324C28.238 22.2532 25.3301 27.0469 22.4222 32.1829C22.2511 32.0117 21.738 31.8405 21.5669 32.1829C21.2248 32.8677 20.7117 33.5525 20.5406 34.4085C20.5406 34.5797 20.5406 34.9221 20.7117 35.0933C20.7117 35.6069 21.3959 35.9493 21.909 35.4357C22.0801 35.2645 22.0801 35.0933 22.2511 34.9221C25.5011 32.5253 28.409 29.4437 30.6327 25.8485C33.3695 23.4516 35.2511 20.37 35.7642 16.7748C36.6195 14.8916 36.9616 12.8372 37.1326 11.1252C37.8168 6.84516 36.6195 2.90755 32.3432 0.853136ZM23.2775 9.07078C23.2775 8.89958 23.4485 8.55716 23.6196 8.38596C23.6196 9.07076 23.9616 9.92677 24.3038 10.6116C24.3038 10.954 24.1327 11.4676 24.1327 11.81C23.7906 10.954 23.2775 9.92678 23.2775 9.07078ZM23.7906 14.8916C22.0801 13.522 21.5669 10.6116 21.738 8.55717C21.738 8.04357 21.9091 7.52997 22.0801 7.01637C22.0801 7.18757 22.0801 7.18757 22.0801 7.35877C21.5669 8.72838 21.5669 10.098 22.0801 11.4676C22.0801 11.6388 22.0801 11.81 22.0801 11.9812C22.0801 12.3236 22.2511 12.666 22.4222 13.0084C22.5933 13.522 22.7643 13.8644 23.1064 14.378C23.4485 14.8916 24.3038 15.234 24.988 15.4052C25.159 15.5764 25.3301 15.5764 25.5011 15.7476C24.988 15.5764 24.3038 15.4052 23.7906 14.8916ZM29.7774 2.90754C28.7511 2.73634 27.5537 2.73635 26.6985 3.07875C26.5274 3.07875 26.1853 3.07875 26.0143 3.07875H25.8432C26.6985 2.39395 27.7248 1.88035 28.9222 1.88035C28.7511 2.05155 28.7511 2.22275 29.0932 2.22275C29.7774 2.22275 30.4616 2.39394 30.9748 2.56514C30.4616 2.73634 30.1195 2.73634 29.7774 2.90754ZM31.3169 17.2884C31.3169 17.2884 31.3169 17.4596 31.3169 17.2884C31.3169 16.7748 31.3169 15.9188 31.1458 15.234C31.1458 15.234 31.3169 15.234 31.3169 15.0628C31.4879 15.9188 31.4879 16.6036 31.3169 17.2884ZM35.5932 7.87238C35.4221 7.70118 35.08 7.87237 35.08 8.21477C35.4221 9.58438 35.4221 10.954 35.08 12.3236C35.08 11.9812 35.08 11.6388 35.08 11.2964C35.08 11.1252 35.08 11.1252 35.08 10.954C35.2511 10.2692 35.2511 9.75558 35.08 9.07078C34.909 7.18757 34.5669 5.13315 33.7116 3.76354C34.909 4.96195 35.4221 6.50277 35.5932 7.87238C35.5932 8.04358 35.5932 8.04358 35.5932 7.87238Z" fill="#507A4D"/>
</g>
</svg>
