<svg width="38" height="36" viewBox="0 0 38 36" fill="none" xmlns="http://www.w3.org/2000/svg">
<g id="Group">
<path id="Vector" fill-rule="evenodd" clip-rule="evenodd" d="M25.1535 35.0078C28.5745 36.7198 32.3376 35.0078 34.2192 32.0974C38.1534 29.8717 38.1534 24.0509 35.2455 20.4557C33.7061 18.4013 31.8245 18.5725 30.114 19.4285C29.9429 19.4285 29.7719 19.4285 29.6008 19.4285C29.2587 13.6077 32.1666 8.81405 35.0745 3.67802C35.2455 3.84922 35.7587 4.02043 35.9297 3.67802C36.2718 2.99322 36.785 2.30842 36.956 1.45241C36.956 1.28121 36.956 0.938811 36.785 0.76761C36.785 0.254007 36.1008 -0.0883943 35.5876 0.425208C35.4166 0.596409 35.4166 0.76761 35.2455 0.938811C31.9955 3.33562 29.0877 6.41724 26.864 9.84125C24.1272 12.2381 22.2456 15.3197 21.7325 18.9149C20.8772 20.7981 20.5351 22.8525 20.364 24.5645C19.8509 29.0157 21.0482 32.9534 25.1535 35.0078ZM35.0745 26.9613C35.0745 27.1325 34.3903 27.4749 34.2192 27.6461C34.2192 26.9613 33.7061 26.1053 33.364 25.4205C33.364 25.0781 33.8771 24.5645 33.8771 24.2221C34.3903 25.0781 35.0745 25.9341 35.0745 26.9613C35.0745 26.7901 35.0745 26.7901 35.0745 26.9613ZM33.8771 20.9693C35.5876 22.3389 36.1008 25.2493 35.9297 27.3037C35.9297 27.8173 35.7587 28.3309 35.5876 28.8445C35.5876 28.6733 35.5876 28.6733 35.5876 28.5021C36.1008 27.1325 36.1008 25.7629 35.5876 24.3933C35.5876 24.2221 35.5876 24.0509 35.5876 23.8797C35.5876 23.5373 35.4166 23.1949 35.2455 22.8525C35.0745 22.3389 34.9034 21.9965 34.5613 21.4829C34.2192 20.9693 33.364 20.6269 32.6797 20.4557C32.3376 20.6269 32.1666 20.4557 31.9955 20.4557C32.6797 20.2845 33.1929 20.4557 33.8771 20.9693ZM27.7193 33.1246C28.7456 33.2958 29.9429 33.2958 30.7982 32.9534C30.9692 32.9534 31.3113 32.9534 31.4824 32.9534H31.6534C30.7982 33.6382 29.7719 34.1518 28.5745 34.1518C28.7456 33.9806 28.7456 33.8094 28.4035 33.8094C27.7193 33.8094 27.035 33.6382 26.5219 33.467C27.2061 33.2958 27.5482 33.1246 27.7193 33.1246ZM26.1798 18.5725C26.1798 19.0861 26.1798 19.9421 26.3508 20.6269C26.3508 20.6269 26.1798 20.6269 26.1798 20.7981C26.1798 20.1133 26.1798 19.2573 26.1798 18.5725ZM22.0746 27.9885C22.2456 28.1597 22.5877 27.9885 22.5877 27.6461C22.2456 26.2765 22.2456 24.9069 22.5877 23.5373C22.5877 23.8797 22.5877 24.2221 22.5877 24.5645C22.5877 24.7357 22.5877 24.7357 22.5877 24.9069C22.4167 25.5917 22.4167 26.1053 22.5877 26.7901C22.7588 28.6733 23.1009 30.7278 23.9561 32.0974C22.5877 31.0702 22.0746 29.5294 22.0746 27.9885C22.0746 27.9885 22.0746 27.8173 22.0746 27.9885Z" fill="#507A4D"/>
<path id="Vector_2" fill-rule="evenodd" clip-rule="evenodd" d="M4.96941 34.8366C8.39044 36.5486 12.1536 34.8366 14.0351 31.9262C17.9693 29.7006 17.9693 23.8798 15.0614 20.2846C13.522 18.2302 11.6404 18.4014 9.9299 19.2574C9.75885 19.2574 9.5878 19.2574 9.41674 19.2574C9.07464 13.4365 11.9825 8.64291 14.8904 3.50688C15.0614 3.67808 15.5746 3.84928 15.7456 3.50688C16.0878 2.82208 16.6009 2.13727 16.772 1.28127C16.772 1.11007 16.772 0.767668 16.6009 0.596467C16.6009 0.0828647 15.9167 -0.259537 15.4035 0.254066C15.2325 0.425266 15.2325 0.596467 15.0614 0.767668C11.8115 3.16448 8.90359 6.2461 6.67992 9.84131C3.9431 12.2381 2.06153 15.3197 1.54838 18.915C0.693119 20.7982 0.351017 22.8526 0.179966 24.5646C-0.50424 28.8446 0.69312 32.7822 4.96941 34.8366ZM14.5483 26.619C14.5483 26.7902 14.0351 27.1326 13.8641 27.3038C13.8641 26.619 13.3509 25.763 13.0088 25.0782C13.0088 24.7358 13.3509 24.2222 13.3509 23.8798C13.8641 24.7358 14.5483 25.763 14.5483 26.619ZM13.522 20.7982C15.2325 22.1678 15.7456 25.0782 15.5746 27.1326C15.5746 27.6462 15.4035 28.1598 15.2325 28.6734C15.2325 28.5022 15.2325 28.5022 15.2325 28.331C15.7456 26.9614 15.7456 25.5918 15.2325 24.2222C15.2325 24.051 15.2325 23.8798 15.2325 23.7086C15.2325 23.3662 15.0614 23.0238 14.8904 22.6814C14.7193 22.1678 14.5483 21.8254 14.2062 21.3118C13.8641 20.7982 13.0088 20.4558 12.3246 20.2846C12.1536 20.1134 11.9825 20.1134 11.8115 19.9422C12.3246 20.1134 13.0088 20.2846 13.522 20.7982ZM7.53518 32.7822C8.56149 32.9534 9.75885 32.9534 10.6141 32.611C10.7852 32.611 11.1273 32.611 11.2983 32.611H11.4694C10.6141 33.2958 9.5878 33.8094 8.39043 33.8094C8.56149 33.6382 8.56149 33.467 8.21938 33.467C7.53518 33.467 6.85097 33.2958 6.33782 33.1246C6.85097 32.9534 7.19307 32.9534 7.53518 32.7822ZM5.99572 18.4014C5.99572 18.2302 5.99572 18.4014 5.99572 18.4014C5.99572 18.915 5.99571 19.771 6.16677 20.4558C6.16677 20.4558 5.99572 20.4558 5.99572 20.627C5.82466 19.771 5.82466 19.0862 5.99572 18.4014ZM1.71943 27.8174C1.89048 27.9886 2.23258 27.8174 2.23258 27.475C1.89048 26.1054 1.89048 24.7358 2.23258 23.3662C2.23258 23.7086 2.23258 24.051 2.23258 24.3934C2.23258 24.5646 2.23258 24.5646 2.23258 24.7358C2.06153 25.4206 2.06153 25.9342 2.23258 26.619C2.40363 28.5022 2.74574 30.5566 3.60099 31.9262C2.23258 30.7278 1.71943 29.187 1.71943 27.8174C1.71943 27.6462 1.71943 27.6462 1.71943 27.8174Z" fill="#507A4D"/>
</g>
</svg>
